<svg width="17" height="21" viewBox="0 0 17 21" fill="none" xmlns="http://www.w3.org/2000/svg">
<path d="M5.43879 20.0016C2.46219 19.9845 0 13.9082 0 10.8138C0 5.75891 3.79199 4.65227 5.2534 4.65227C5.91199 4.65227 6.61523 4.9109 7.23551 5.13977C7.66926 5.29941 8.11785 5.46422 8.36734 5.46422C8.51668 5.46422 8.86859 5.32402 9.1793 5.20102C9.84191 4.93723 10.6664 4.60938 11.6266 4.60938C11.6283 4.60938 11.6306 4.60938 11.6323 4.60938C12.3493 4.60938 14.5231 4.76672 15.83 6.72937L16.1361 7.18941L15.6955 7.52188C15.0661 7.9968 13.9177 8.86312 13.9177 10.5792C13.9177 12.6116 15.2183 13.3933 15.8432 13.7692C16.119 13.9352 16.4045 14.1062 16.4045 14.4805C16.4045 14.7248 14.4544 19.9713 11.6226 19.9713C10.9296 19.9713 10.4398 19.763 10.0078 19.5794C9.57066 19.3934 9.19355 19.2332 8.57043 19.2332C8.25457 19.2332 7.85516 19.3825 7.4323 19.5411C6.85445 19.7567 6.20039 20.0016 5.45824 20.0016H5.43879Z" fill="white"/>
<path d="M11.9254 0C11.9991 2.65922 10.0973 4.50406 8.1978 4.38836C7.88479 2.26621 10.0971 0 11.9254 0Z" fill="white"/>
</svg>
