<svg width="1500" height="1000" viewBox="0 0 1500 1000" fill="none" xmlns="http://www.w3.org/2000/svg">
<path d="M1500 0H0V1000H1500V0Z" fill="#CCE2FF"/>
<path d="M1081.52 969.551C1189.21 713.241 983.05 382.161 621.02 230.05C398.516 136.562 168.919 132.444 0 202.667V1000H1067.02C1072.29 990.141 1077.13 979.981 1081.52 969.551Z" fill="#B2CEF3"/>
<path d="M169.712 531.341C363.948 414.95 589.87 434.854 674.32 575.791C749.45 701.171 687.32 880.081 535.95 1000H0V691.501C39.622 630.831 97.368 574.691 169.712 531.341Z" fill="#B3BAE9"/>
<path d="M425.109 820.96C508.641 742.85 633.731 702.75 698.611 697.99C763.511 693.22 817.341 699.15 834.301 740.54C868.751 824.63 863.871 916.41 827.901 1000H310.961C326.728 933.24 361.98 879.98 425.109 820.96Z" fill="#98ABE2"/>
</svg>
