<svg width="18" height="18" viewBox="0 0 18 18" fill="none" xmlns="http://www.w3.org/2000/svg">
<g clip-path="url(#clip0)">
<path d="M11.1793 4.42036C11.204 4.39262 11.3191 4.30198 11.7714 4.30198L13.2543 4.30143C13.7367 4.30143 14.129 3.90977 14.129 3.42829V0.841554C14.129 0.360902 13.7373 -0.0307617 13.2557 -0.0315857L11.053 -0.0351562C9.69357 -0.0351562 8.53788 0.4124 7.71092 1.25931C6.88767 2.10238 6.45245 3.27929 6.45245 4.66261V6.05774H4.76743C4.28501 6.05774 3.89258 6.4494 3.89258 6.93088V9.71674C3.89258 10.1982 4.28501 10.5899 4.76743 10.5899H6.45245V17.0917C6.45245 17.5732 6.84488 17.9649 7.3273 17.9649H10.2155C10.6979 17.9649 11.0903 17.5732 11.0903 17.0917V10.59H13.15C13.6324 10.59 14.0247 10.1982 14.0247 9.71701L14.0258 6.93101C14.0258 6.61474 13.8534 6.3221 13.5758 6.16733C13.4471 6.09564 13.2974 6.05774 13.143 6.05774H11.0903V4.95553C11.0903 4.59628 11.1388 4.46623 11.1793 4.42036V4.42036Z" fill="white"/>
</g>
<defs>
<clipPath id="clip0">
<rect width="18" height="18" fill="white"/>
</clipPath>
</defs>
</svg>
