<svg width="18" height="19" viewBox="0 0 18 19" fill="none" xmlns="http://www.w3.org/2000/svg">
<path d="M14.7899 16.0975C13.229 17.4158 11.204 18.2525 8.99966 18.2525C5.71959 18.2525 2.84025 16.4456 1.27935 13.809L1.86372 11.1153L4.45396 10.6345C5.05513 12.575 6.86916 13.9988 8.99966 13.9988C10.0332 13.9988 10.993 13.6718 11.784 13.0918L14.2731 13.4715L14.7899 16.0975Z" fill="white"/>
<path d="M14.7902 16.0989L14.2734 13.4728L11.7844 13.0932C10.9934 13.6732 10.0336 14.0002 9 14.0002V18.2539C11.2043 18.2539 13.2293 17.4172 14.7902 16.0989Z" fill="white"/>
<path d="M4.25391 9.25323C4.25391 9.73833 4.3274 10.202 4.45396 10.6345L1.27935 13.809C0.488335 12.4801 0 10.9195 0 9.25323C0 7.58685 0.488672 6.02601 1.27969 4.69715L3.82757 5.13564L4.4543 7.87164C4.32773 8.30401 4.25391 8.76805 4.25391 9.25323Z" fill="white"/>
<path d="M18 9.25356C18 11.9956 16.7309 14.4537 14.7902 16.0989L11.7844 13.0932C12.3961 12.6502 12.9129 12.0589 13.2504 11.3629H9C8.70465 11.3629 8.47266 11.1308 8.47266 10.8355V7.67159C8.47266 7.37626 8.70465 7.14427 9 7.14427H17.325C17.5781 7.14427 17.7996 7.32352 17.8418 7.57664C17.9473 8.12509 18 8.69456 18 9.25356Z" fill="white"/>
<path d="M13.2504 11.3629C12.9129 12.0589 12.3961 12.6502 11.7844 13.0932L14.7902 16.0989C16.7309 14.4537 18 11.9956 18 9.25356C18 8.69456 17.9473 8.12509 17.8418 7.57664C17.7996 7.32352 17.5781 7.14427 17.325 7.14427H9V11.3629H13.2504Z" fill="white"/>
<path d="M14.9376 2.76745C14.9481 2.9151 14.8848 3.05224 14.7899 3.15767L12.5329 5.40407C12.3536 5.5939 12.0583 5.61499 11.8474 5.4568C11.0141 4.83459 10.0332 4.50765 8.99966 4.50765C6.86916 4.50765 5.05547 5.93105 4.4543 7.87164L1.27969 4.69715C2.84059 2.06053 5.71959 0.253906 8.99966 0.253906C11.0985 0.253906 13.1446 1.02731 14.7477 2.37723C14.8637 2.47218 14.927 2.6198 14.9376 2.76745Z" fill="white"/>
<path d="M11.8474 5.4568C12.0583 5.61499 12.3536 5.5939 12.5329 5.40407L14.7899 3.15767C14.8848 3.05224 14.9481 2.9151 14.9376 2.76745C14.927 2.6198 14.8637 2.47218 14.7477 2.37723C13.1446 1.02731 11.0985 0.253906 8.99966 0.253906V4.50765C10.0332 4.50765 11.0141 4.83459 11.8474 5.4568Z" fill="white"/>
</svg>
