<svg width="167" height="528" viewBox="0 0 167 528" fill="none" xmlns="http://www.w3.org/2000/svg">
<path d="M97.9312 459.428C93.5448 459.428 90.1268 460.995 87.6772 464.128C85.2277 467.204 82.6927 472.644 80.0723 480.449C77.4518 488.253 74.9168 494.633 72.4673 499.589C64.549 515.711 53.6685 523.771 39.8257 523.771C32.9328 523.771 26.8659 521.778 21.625 517.79C16.3271 513.745 12.2256 508.049 9.32031 500.7C6.35807 493.352 4.87695 485.091 4.87695 475.92C4.87695 466.976 6.47201 458.972 9.66211 451.909C12.8522 444.788 17.4095 439.262 23.334 435.332C29.2015 431.401 35.9235 429.436 43.5 429.436V459.343C38.43 459.343 34.4993 460.909 31.708 464.042C28.9167 467.119 27.521 471.306 27.521 476.604C27.521 481.958 28.7173 486.202 31.1099 489.335C33.4455 492.412 36.4362 493.95 40.082 493.95C43.2721 493.95 46.1774 492.241 48.7979 488.823C51.3613 485.405 54.0387 479.395 56.8301 470.793C59.5645 462.191 62.5267 455.127 65.7168 449.602C73.4642 436.158 84.1453 429.436 97.7603 429.436C108.641 429.436 117.186 433.537 123.395 441.74C129.604 449.943 132.709 461.194 132.709 475.493C132.709 485.576 130.915 494.719 127.326 502.922C123.68 511.068 118.724 517.22 112.458 521.379C106.134 525.48 98.8711 527.531 90.668 527.531V497.453C97.333 497.453 102.261 495.744 105.451 492.326C108.584 488.851 110.15 483.24 110.15 475.493C110.15 470.537 109.097 466.634 106.989 463.786C104.824 460.881 101.805 459.428 97.9312 459.428ZM131 385.002V413.884H38.5439V385.002H131ZM14.7036 415.593C10.6021 415.593 7.24105 414.112 4.62061 411.149C2.00016 408.187 0.689941 404.342 0.689941 399.614C0.689941 394.886 2.00016 391.04 4.62061 388.078C7.24105 385.116 10.6021 383.635 14.7036 383.635C18.8052 383.635 22.1662 385.116 24.7866 388.078C27.4071 391.04 28.7173 394.886 28.7173 399.614C28.7173 404.342 27.4071 408.187 24.7866 411.149C22.1662 414.112 18.8052 415.593 14.7036 415.593ZM38.5439 340.739L49.396 339.799C41.022 333.419 36.835 324.618 36.835 313.396C36.835 303.768 39.7118 296.59 45.4653 291.862C51.2189 287.077 59.8778 284.599 71.4419 284.428H131L131 313.31H72.6382C67.967 313.31 64.549 314.25 62.3843 316.13C60.1626 318.01 59.0518 321.428 59.0518 326.384C59.0518 332.023 61.2734 336.21 65.7168 338.945H131V367.741H38.5439L38.5439 340.739ZM131 216.325C129.12 217.351 126.357 218.262 122.711 219.06C129.376 224.357 132.709 231.763 132.709 241.276C132.709 249.992 130.089 257.398 124.848 263.493C119.55 269.589 112.913 272.636 104.938 272.636C94.9119 272.636 87.3354 268.933 82.2085 261.528C77.0815 254.122 74.5181 243.356 74.5181 229.228V220.341H69.6475C61.1595 220.341 56.9155 224.016 56.9155 231.364C56.9155 238.2 60.2765 241.618 66.9985 241.618V270.415C58.0549 270.415 50.7917 266.626 45.209 259.05C39.6263 251.416 36.835 241.704 36.835 229.912C36.835 218.12 39.7118 208.806 45.4653 201.97C51.2189 195.134 59.1087 191.63 69.1348 191.459H110.065C118.553 191.346 125.047 190.035 129.547 187.529H131V216.325ZM112.201 234.355C112.201 230.766 111.432 227.804 109.894 225.468C108.356 223.076 106.618 221.367 104.682 220.341H89.8989V228.715C89.8989 238.741 94.3993 243.754 103.4 243.754C106.02 243.754 108.157 242.871 109.809 241.105C111.404 239.34 112.201 237.089 112.201 234.355ZM85.4556 89.604C99.811 89.604 111.29 92.8511 119.892 99.3452C128.437 105.782 132.709 114.498 132.709 125.493C132.709 133.981 129.604 140.959 123.395 146.428H166.547V175.224H38.5439V148.308L47.0889 147.453C40.2529 141.927 36.835 134.664 36.835 125.664C36.835 114.27 41.0505 105.412 49.4814 99.0889C57.8555 92.7656 69.3911 89.604 84.0884 89.604H85.4556ZM83.6611 118.4C67.2549 118.4 59.0518 123.186 59.0518 132.756C59.0518 139.592 61.5013 144.149 66.4004 146.428H102.802C107.929 143.921 110.492 139.307 110.492 132.585C110.492 123.413 102.574 118.685 86.7373 118.4H83.6611ZM105.023 28.4224C102.574 28.4224 100.609 29.7041 99.1274 32.2676C97.6463 34.8311 96.1082 39.7017 94.5132 46.8794C92.9181 54.0571 90.8389 59.9816 88.2754 64.6528C85.6549 69.3241 82.4933 72.8844 78.7905 75.334C75.0877 77.7835 70.8438 79.0083 66.0586 79.0083C57.5706 79.0083 50.5923 75.5049 45.1235 68.498C39.5978 61.4912 36.835 52.3197 36.835 40.9834C36.835 28.7926 39.5978 18.9945 45.1235 11.5889C50.6493 4.18327 57.9124 0.480469 66.9131 0.480469V29.3623C59.5075 29.3623 55.8047 33.2645 55.8047 41.0688C55.8047 44.0881 56.6592 46.623 58.3682 48.6738C60.0202 50.7246 62.0994 51.75 64.606 51.75C67.1694 51.75 69.2487 50.4967 70.8438 47.9902C72.4388 45.4837 73.749 41.4961 74.7744 36.0273C75.7998 30.5016 77.0246 25.6595 78.4487 21.501C83.2339 7.60124 91.8073 0.651367 104.169 0.651367C112.6 0.651367 119.464 4.41113 124.762 11.9307C130.06 19.3932 132.709 29.0775 132.709 40.9834C132.709 48.9017 131.285 55.9655 128.437 62.1748C125.588 68.3841 121.715 73.2262 116.815 76.7012C111.916 80.1761 106.761 81.9136 101.349 81.9136V54.9971C105.622 54.8831 108.755 53.459 110.749 50.7246C112.685 47.9902 113.654 44.4868 113.654 40.2144C113.654 36.2837 112.856 33.3499 111.261 31.4131C109.666 29.4193 107.587 28.4224 105.023 28.4224Z" fill="white"/>
</svg>
